<svg width="281" height="126" viewBox="0 0 281 126" fill="none" xmlns="http://www.w3.org/2000/svg">
<path d="M8.505 95V26.645H46.41V35.15H19.005V58.04H42.945V65.915H19.005V95H8.505ZM86.4839 84.815V39.98H96.1439V95H90.1589L86.6939 88.28L81.9689 94.055C79.4489 95.21 75.9839 96.155 71.6789 96.155C62.6489 96.155 56.9789 90.8 56.9789 78.62V39.98H66.6389V79.775C66.6389 86.6 69.7889 88.805 74.5139 88.805C79.6589 88.805 82.9139 87.23 86.4839 84.815ZM124.137 96.47C116.577 96.47 111.327 94.58 108.177 93.005L109.332 85.865C112.902 87.44 117.732 89.12 123.192 89.12C129.912 89.12 133.587 86.915 133.587 80.51C133.587 74.42 131.277 73.58 121.197 70.955C113.427 68.855 107.862 65.285 107.862 55.1C107.862 44.075 115.002 38.93 125.922 38.93C132.642 38.93 137.577 40.4 140.832 42.08L139.362 49.115C135.267 47.75 131.907 46.7 126.552 46.7C120.042 46.7 116.787 48.38 116.787 54.575C116.787 60.35 119.832 61.19 128.337 63.395C137.787 65.915 142.827 69.695 142.827 80.09C142.827 89.75 136.632 96.47 124.137 96.47ZM159.753 30.635C156.393 30.635 153.453 28.22 153.453 24.545C153.453 20.87 156.393 18.35 159.753 18.35C163.113 18.35 165.948 20.87 165.948 24.545C165.948 28.22 163.113 30.635 159.753 30.635ZM154.818 95V39.98H164.478V95H154.818ZM199.241 96.47C185.591 96.47 177.086 86.18 177.086 67.7C177.086 48.905 185.801 38.93 199.241 38.93C212.681 38.93 221.291 48.905 221.291 67.385C221.291 86.18 212.891 96.47 199.241 96.47ZM199.241 89.015C206.696 89.015 211.211 83.975 211.211 68.645V66.965C211.211 50.9 207.116 46.595 199.241 46.595C191.366 46.595 187.166 50.9 187.166 66.44V68.225C187.166 83.975 191.681 89.015 199.241 89.015ZM242.908 47.015L248.053 41.135C250.468 39.98 253.723 38.93 258.028 38.93C267.268 38.93 272.833 44.18 272.833 56.36V95H263.173V55.1C263.173 48.905 260.023 46.805 255.088 46.805C250.258 46.805 247.108 48.38 243.118 50.9V95H233.458V39.98H239.338L242.908 47.015Z" fill="#101820"></path>
</svg>